<mxfile host="app.diagrams.net" modified="2023-11-10T00:22:34.240Z" agent="Mozilla/5.0 (Windows NT 10.0; Win64; x64) AppleWebKit/537.36 (KHTML, like Gecko) Chrome/119.0.0.0 Safari/537.36" etag="aPRTLnYtU78zHrQfXRTa" version="22.1.0" type="device">
  <diagram id="C5RBs43oDa-KdzZeNtuy" name="Page-1">
    <mxGraphModel dx="1878" dy="2206" grid="1" gridSize="10" guides="1" tooltips="1" connect="1" arrows="1" fold="1" page="1" pageScale="1" pageWidth="827" pageHeight="1169" math="0" shadow="0">
      <root>
        <mxCell id="WIyWlLk6GJQsqaUBKTNV-0" />
        <mxCell id="WIyWlLk6GJQsqaUBKTNV-1" parent="WIyWlLk6GJQsqaUBKTNV-0" />
        <mxCell id="rnwdawitM6W5QzsJMM2y-0" value="START" style="strokeWidth=2;html=1;shape=mxgraph.flowchart.start_1;whiteSpace=wrap;" vertex="1" parent="WIyWlLk6GJQsqaUBKTNV-1">
          <mxGeometry x="330" y="-70" width="150" height="90" as="geometry" />
        </mxCell>
        <mxCell id="rnwdawitM6W5QzsJMM2y-1" value="END" style="strokeWidth=2;html=1;shape=mxgraph.flowchart.terminator;whiteSpace=wrap;" vertex="1" parent="WIyWlLk6GJQsqaUBKTNV-1">
          <mxGeometry x="348" y="776" width="100" height="60" as="geometry" />
        </mxCell>
        <mxCell id="rnwdawitM6W5QzsJMM2y-14" value="" style="edgeStyle=orthogonalEdgeStyle;rounded=0;orthogonalLoop=1;jettySize=auto;html=1;" edge="1" parent="WIyWlLk6GJQsqaUBKTNV-1" source="rnwdawitM6W5QzsJMM2y-2" target="rnwdawitM6W5QzsJMM2y-11">
          <mxGeometry relative="1" as="geometry" />
        </mxCell>
        <mxCell id="rnwdawitM6W5QzsJMM2y-2" value="&lt;div&gt;Input &quot;a_float&quot;&amp;nbsp; &amp;nbsp; &amp;nbsp;&lt;/div&gt;&lt;div&gt;&amp;nbsp;Input &quot;b_float&quot;&lt;/div&gt;" style="shape=parallelogram;html=1;strokeWidth=2;perimeter=parallelogramPerimeter;whiteSpace=wrap;rounded=1;arcSize=12;size=0.23;" vertex="1" parent="WIyWlLk6GJQsqaUBKTNV-1">
          <mxGeometry x="311" y="80" width="170" height="90" as="geometry" />
        </mxCell>
        <mxCell id="rnwdawitM6W5QzsJMM2y-3" value="Output &quot;Result(float) ; &lt;br&gt;(double&quot;" style="shape=parallelogram;html=1;strokeWidth=2;perimeter=parallelogramPerimeter;whiteSpace=wrap;rounded=1;arcSize=12;size=0.23;" vertex="1" parent="WIyWlLk6GJQsqaUBKTNV-1">
          <mxGeometry x="315" y="620" width="180" height="80" as="geometry" />
        </mxCell>
        <mxCell id="rnwdawitM6W5QzsJMM2y-5" style="edgeStyle=orthogonalEdgeStyle;rounded=0;orthogonalLoop=1;jettySize=auto;html=1;exitX=0.5;exitY=1;exitDx=0;exitDy=0;entryX=0.564;entryY=0.033;entryDx=0;entryDy=0;entryPerimeter=0;" edge="1" parent="WIyWlLk6GJQsqaUBKTNV-1" source="rnwdawitM6W5QzsJMM2y-3" target="rnwdawitM6W5QzsJMM2y-1">
          <mxGeometry relative="1" as="geometry" />
        </mxCell>
        <mxCell id="rnwdawitM6W5QzsJMM2y-11" value="Calculate&amp;nbsp; &amp;nbsp; &amp;nbsp; &amp;nbsp;&lt;br style=&quot;border-color: var(--border-color);&quot;&gt;&amp;nbsp;&quot;numerator_float&quot;&amp;nbsp; &amp;nbsp;&lt;br style=&quot;border-color: var(--border-color);&quot;&gt;&quot;denominator_float&quot;" style="rounded=1;whiteSpace=wrap;html=1;absoluteArcSize=1;arcSize=14;strokeWidth=2;" vertex="1" parent="WIyWlLk6GJQsqaUBKTNV-1">
          <mxGeometry x="320" y="202" width="150" height="90" as="geometry" />
        </mxCell>
        <mxCell id="rnwdawitM6W5QzsJMM2y-12" style="edgeStyle=orthogonalEdgeStyle;rounded=0;orthogonalLoop=1;jettySize=auto;html=1;entryX=0.548;entryY=0.015;entryDx=0;entryDy=0;entryPerimeter=0;" edge="1" parent="WIyWlLk6GJQsqaUBKTNV-1" source="rnwdawitM6W5QzsJMM2y-0" target="rnwdawitM6W5QzsJMM2y-2">
          <mxGeometry relative="1" as="geometry" />
        </mxCell>
        <mxCell id="rnwdawitM6W5QzsJMM2y-18" style="edgeStyle=orthogonalEdgeStyle;rounded=0;orthogonalLoop=1;jettySize=auto;html=1;exitX=0.5;exitY=1;exitDx=0;exitDy=0;exitPerimeter=0;entryX=0.5;entryY=0;entryDx=0;entryDy=0;" edge="1" parent="WIyWlLk6GJQsqaUBKTNV-1" source="rnwdawitM6W5QzsJMM2y-15" target="rnwdawitM6W5QzsJMM2y-17">
          <mxGeometry relative="1" as="geometry" />
        </mxCell>
        <mxCell id="rnwdawitM6W5QzsJMM2y-15" value="&lt;div&gt;Check if&amp;nbsp;&amp;nbsp;&lt;/div&gt;&lt;div&gt;&amp;nbsp;&quot;denominator_float&quot;&amp;nbsp;&lt;/div&gt;&lt;div&gt;&amp;nbsp;is not equal to 0&amp;nbsp;&lt;/div&gt;" style="strokeWidth=2;html=1;shape=mxgraph.flowchart.decision;whiteSpace=wrap;" vertex="1" parent="WIyWlLk6GJQsqaUBKTNV-1">
          <mxGeometry x="320" y="310" width="150" height="140" as="geometry" />
        </mxCell>
        <mxCell id="rnwdawitM6W5QzsJMM2y-16" style="edgeStyle=orthogonalEdgeStyle;rounded=0;orthogonalLoop=1;jettySize=auto;html=1;exitX=0.5;exitY=1;exitDx=0;exitDy=0;entryX=0.5;entryY=0;entryDx=0;entryDy=0;entryPerimeter=0;" edge="1" parent="WIyWlLk6GJQsqaUBKTNV-1" source="rnwdawitM6W5QzsJMM2y-11" target="rnwdawitM6W5QzsJMM2y-15">
          <mxGeometry relative="1" as="geometry" />
        </mxCell>
        <mxCell id="rnwdawitM6W5QzsJMM2y-17" value="Calculate&amp;nbsp;&amp;nbsp;&lt;br&gt;&amp;nbsp;&quot;result_float&quot;" style="rounded=1;whiteSpace=wrap;html=1;absoluteArcSize=1;arcSize=14;strokeWidth=2;" vertex="1" parent="WIyWlLk6GJQsqaUBKTNV-1">
          <mxGeometry x="337.5" y="470" width="115" height="110" as="geometry" />
        </mxCell>
        <mxCell id="rnwdawitM6W5QzsJMM2y-20" style="edgeStyle=orthogonalEdgeStyle;rounded=0;orthogonalLoop=1;jettySize=auto;html=1;exitX=0.5;exitY=1;exitDx=0;exitDy=0;entryX=0.444;entryY=-0.051;entryDx=0;entryDy=0;entryPerimeter=0;" edge="1" parent="WIyWlLk6GJQsqaUBKTNV-1" source="rnwdawitM6W5QzsJMM2y-17" target="rnwdawitM6W5QzsJMM2y-3">
          <mxGeometry relative="1" as="geometry" />
        </mxCell>
      </root>
    </mxGraphModel>
  </diagram>
</mxfile>
